<?xml version="1.0" standalone="no"?>
<!DOCTYPE svg PUBLIC "-//W3C//DTD SVG 20010904//EN"
 "http://www.w3.org/TR/2001/REC-SVG-20010904/DTD/svg10.dtd">
<svg version="1.0" xmlns="http://www.w3.org/2000/svg"
 width="375.000000pt" height="360.000000pt" viewBox="0 0 375.000000 360.000000"
 preserveAspectRatio="xMidYMid meet">

<g transform="translate(0.000000,360.000000) scale(0.100000,-0.100000)" fill="rgb(46, 182, 182)" stroke="none" opacity="0.5">
<path d="M1815 3277 c-46 -17 -66 -20 -87 -13 -40 14 -81 -8 -172 -94 -45 -42
-106 -95 -138 -118 -72 -55 -90 -93 -99 -212 -7 -89 -71 -427 -85 -453 -4 -7
-22 -31 -41 -55 -35 -42 -118 -209 -167 -335 -27 -69 -411 -798 -426 -807 -14
-10 -31 -52 -27 -65 4 -9 -18 -17 -81 -29 -96 -17 -122 -36 -122 -87 0 -24 -4
-29 -24 -29 -13 0 -35 -9 -50 -21 -38 -30 -36 -79 5 -113 17 -14 35 -26 41
-26 6 0 7 -15 3 -40 -6 -35 -3 -43 23 -69 17 -18 51 -36 83 -44 136 -37 340
-80 405 -84 l71 -5 -1 -37 c-1 -34 2 -37 55 -63 36 -18 72 -46 98 -77 51 -61
64 -64 271 -53 171 8 155 3 327 101 50 29 146 75 213 102 l121 49 479 0 479 0
11 -58 c28 -144 51 -218 71 -234 30 -26 75 -23 104 7 31 30 33 86 6 200 -11
44 -26 125 -35 180 -9 55 -34 154 -56 220 -35 105 -38 121 -25 134 13 13 18
12 40 -9 24 -23 146 -204 178 -265 8 -16 31 -65 51 -107 41 -92 74 -128 114
-128 81 0 81 81 -3 284 -66 163 -88 206 -130 266 -50 70 -167 280 -177 319 -6
20 -54 106 -107 191 -54 85 -111 179 -127 209 -30 56 -104 137 -135 146 -28 9
-100 114 -344 500 -125 198 -242 376 -260 395 -32 33 -33 37 -23 75 14 52 -9
105 -58 136 -39 24 -39 24 -20 71 25 59 -1 115 -68 148 -53 25 -86 25 -161 -3z
m157 -13 c35 -18 68 -61 68 -89 0 -13 -8 -32 -17 -44 -17 -20 -20 -20 -72 -7
-29 8 -71 27 -92 42 l-40 27 23 25 23 25 -27 -17 c-21 -14 -31 -15 -48 -6 -27
15 -22 20 48 46 58 22 87 21 134 -2z m-287 -51 l-5 -38 12 34 c7 19 18 36 23
38 6 1 44 -24 85 -57 41 -33 78 -60 82 -60 4 0 4 -15 1 -33 -4 -28 -1 -37 22
-55 15 -12 35 -22 44 -22 21 0 61 28 61 42 0 6 -11 1 -25 -12 -21 -20 -30 -22
-52 -14 -31 10 -54 57 -37 74 16 16 111 -16 119 -40 9 -28 -20 -77 -57 -96
-41 -21 -123 -21 -190 2 -39 13 -56 14 -69 6 -15 -9 -20 -8 -29 6 -10 14 -10
13 -6 -8 4 -19 0 -29 -15 -38 -14 -9 -18 -19 -14 -34 7 -19 4 -20 -33 -16 -22
2 -38 0 -35 -5 3 -5 23 -7 45 -6 46 4 64 -16 55 -60 -4 -19 5 -48 29 -95 27
-55 34 -81 35 -130 0 -33 4 -81 8 -106 8 -41 9 -39 10 33 l1 79 31 -26 c17
-15 44 -33 60 -42 19 -9 29 -22 29 -37 0 -31 25 -63 54 -71 13 -3 45 1 72 9
66 20 68 19 46 -12 -11 -16 -40 -60 -66 -100 -39 -60 -60 -80 -126 -122 -44
-29 -86 -54 -93 -57 -8 -3 -44 15 -81 40 -36 24 -63 40 -60 34 4 -5 33 -27 66
-49 43 -27 56 -40 45 -45 -18 -6 -41 -57 -96 -212 -22 -62 -90 -206 -152 -324
-165 -312 -137 -280 -260 -300 -57 -10 -153 -20 -214 -23 -113 -6 -264 -27
-324 -45 -19 -5 -36 -8 -38 -6 -2 2 82 163 186 358 104 195 206 397 226 449
53 133 111 245 160 310 41 56 43 61 84 270 23 118 41 238 41 267 0 72 19 112
76 158 27 21 90 75 139 120 76 69 119 102 133 104 2 0 0 -17 -3 -37z m399
-194 c29 -34 33 -79 13 -117 -18 -32 -245 -202 -271 -202 -26 0 -145 80 -146
99 0 11 3 11 15 1 13 -11 13 -8 0 23 -8 20 -15 40 -15 44 0 4 31 8 69 8 65 0
72 2 103 31 19 18 49 34 69 38 44 8 84 37 104 77 19 37 27 36 59 -2z m-296
-67 l63 -18 -24 -22 c-18 -17 -35 -22 -79 -22 -48 0 -56 3 -66 24 -8 18 -7 27
6 40 20 20 22 20 100 -2z m-113 -42 c3 -5 2 -10 -4 -10 -5 0 -13 5 -16 10 -3
6 -2 10 4 10 5 0 13 -4 16 -10z m470 -80 c20 -23 23 -68 7 -111 -10 -26 -80
-71 -226 -148 l-59 -31 -38 22 c-56 31 -81 61 -82 100 -2 36 0 36 69 22 28 -5
44 4 155 88 129 99 135 101 174 58z m282 -442 c166 -263 242 -376 281 -413 29
-27 74 -70 100 -95 41 -39 54 -63 95 -168 26 -68 47 -130 47 -138 0 -8 -14
-43 -31 -77 -26 -51 -33 -77 -37 -150 -4 -81 -8 -93 -38 -136 -19 -25 -45 -68
-59 -96 -22 -44 -24 -46 -19 -17 7 38 -10 63 -57 82 -25 11 -32 10 -50 -6 -50
-45 -45 -83 15 -119 38 -23 39 -25 14 -25 -36 0 -78 51 -78 94 0 45 30 129 84
233 45 88 50 107 61 238 4 48 3 67 -4 60 -6 -6 -15 -56 -19 -111 -6 -69 -14
-108 -27 -128 l-19 -29 -49 54 c-69 77 -129 166 -149 224 -10 28 -17 40 -18
29 0 -46 79 -172 169 -266 35 -38 33 -50 -4 -25 -38 26 -135 78 -135 73 0 -2
40 -28 90 -56 86 -49 89 -52 78 -75 -10 -22 -16 -24 -48 -19 -54 9 -80 -19
-80 -85 0 -80 -11 -141 -26 -141 -8 0 -23 18 -34 41 -12 22 -36 62 -54 87 -55
78 -101 181 -64 144 7 -7 17 -12 22 -12 6 0 -3 9 -21 21 -36 23 -39 33 -63
189 -11 75 -14 121 -8 133 5 10 30 32 56 48 25 16 42 29 36 29 -12 0 -52 -26
-85 -57 l-25 -23 -24 25 c-20 21 -22 28 -12 50 12 26 103 101 181 148 25 16
37 26 27 23 -36 -12 -154 -96 -190 -136 -20 -22 -39 -40 -43 -39 -14 1 -46 49
-172 253 l-122 199 24 26 c14 14 50 64 80 111 55 86 79 112 130 144 56 35 67
117 21 167 -14 15 -14 22 -3 53 7 19 16 33 20 30 4 -2 110 -167 236 -366z
m-679 323 c3 -8 -1 -12 -9 -9 -7 2 -15 10 -17 17 -3 8 1 12 9 9 7 -2 15 -10
17 -17z m426 -75 c22 -46 20 -56 -5 -26 l-20 25 17 -37 c17 -36 17 -38 -2 -59
-25 -28 -144 -86 -195 -94 -48 -8 -75 10 -81 56 -4 27 0 31 64 64 37 20 94 51
126 70 31 19 62 34 68 35 7 0 19 -15 28 -34z m-143 -628 c68 -111 149 -230
179 -265 l56 -62 21 -135 c22 -135 55 -226 112 -312 l21 -31 -107 -6 c-228
-14 -239 -13 -442 55 l-186 63 -167 0 -167 0 28 50 c125 222 236 449 276 560
26 72 53 141 60 155 10 20 163 126 186 129 3 1 61 -90 130 -201z m1012 -493
c31 -50 57 -99 57 -109 0 -20 130 -256 177 -321 41 -57 73 -122 132 -267 60
-151 76 -211 61 -238 -15 -27 -61 -26 -87 3 -26 28 -86 147 -79 155 3 3 0 12
-7 21 -8 9 -28 39 -45 68 l-31 52 33 20 c18 11 41 30 52 42 10 12 -3 6 -29
-14 -52 -40 -67 -45 -67 -24 0 7 18 23 40 36 22 12 40 25 40 28 0 3 -21 -7
-46 -22 -25 -15 -46 -25 -48 -23 -21 34 -106 139 -120 148 -16 10 -23 8 -42
-12 l-23 -23 40 -120 c22 -66 49 -174 60 -240 11 -65 26 -142 34 -170 26 -96
28 -139 6 -167 -52 -65 -102 -33 -126 80 -9 42 -28 125 -42 184 -13 59 -22
112 -18 118 3 5 2 10 -3 10 -6 0 -13 7 -16 16 -4 11 6 21 39 35 25 11 45 22
45 24 0 5 -42 -10 -70 -25 -15 -8 -20 -6 -24 8 -7 22 -26 145 -23 148 1 1 18
9 37 18 19 9 27 14 17 11 -64 -18 -67 -18 -67 3 0 11 6 22 13 25 6 2 4 3 -6 1
-17 -2 -38 20 -82 88 l-23 36 36 52 37 52 32 -37 c41 -48 43 -41 4 9 -25 31
-28 42 -21 62 5 13 11 59 13 102 3 56 10 89 27 122 36 70 40 96 24 142 -25 73
-20 66 89 -107z m-1328 -234 c39 -10 114 -33 168 -52 l98 -33 -6 -30 -5 -31
11 28 c10 25 15 28 38 21 14 -5 115 -9 224 -9 l199 0 28 -50 c15 -27 33 -75
40 -105 18 -81 82 -139 136 -126 19 5 26 2 33 -17 13 -33 58 -67 88 -67 35 0
80 29 93 61 7 16 9 45 5 73 -4 25 -4 46 -1 46 12 0 36 -68 36 -99 0 -16 13
-82 30 -147 16 -66 30 -120 30 -121 0 -2 -214 -3 -475 -3 -417 0 -480 -2 -513
-16 -20 -9 -69 -29 -108 -44 -39 -15 -119 -53 -178 -86 -203 -113 -171 -103
-365 -110 l-174 -6 -61 60 c-33 34 -80 68 -103 77 -46 19 -56 44 -29 80 11 16
22 17 82 12 38 -3 94 -13 124 -22 73 -22 180 -31 180 -16 0 7 -21 11 -55 11
-51 0 -105 15 -105 30 0 7 -21 8 -240 12 -144 3 -182 8 -300 36 -245 58 -280
74 -280 126 0 46 19 50 152 31 133 -18 508 -35 508 -22 0 4 1 10 3 15 1 4 -92
8 -208 9 -140 1 -238 7 -295 17 -47 9 -102 16 -123 16 -70 0 -122 44 -109 92
9 34 36 39 170 30 209 -13 569 -10 584 7 11 11 0 12 -66 6 -44 -4 -191 -4
-328 0 -226 7 -250 9 -258 26 -14 26 8 68 39 75 14 3 33 8 41 11 22 8 408 24
533 23 64 -1 107 3 107 8 0 7 -95 9 -260 6 l-260 -4 0 24 c0 12 8 30 18 39 36
33 291 77 444 77 35 0 113 9 173 20 239 44 358 46 490 11z m876 -68 c6 -6 7
-33 3 -60 -7 -57 11 -103 51 -129 20 -13 25 -25 25 -60 0 -38 -3 -44 -24 -50
-25 -6 -74 14 -95 39 -17 21 -27 87 -12 87 7 0 11 25 11 73 0 39 3 97 7 127
l7 55 9 -35 c5 -19 13 -40 18 -47z m37 47 c-13 -40 -25 -45 -38 -19 -16 28 -6
49 24 49 23 0 24 -2 14 -30z m92 -95 c16 -8 31 -23 34 -32 7 -22 -7 -76 -20
-80 -12 -4 -104 54 -104 65 0 14 40 62 51 62 6 0 23 -7 39 -15z m-193 -107
c-3 -7 -5 -2 -5 12 0 14 2 19 5 13 2 -7 2 -19 0 -25z m297 10 c8 -13 18 -60
21 -105 7 -79 7 -82 -18 -107 -17 -16 -37 -26 -56 -26 -42 0 -48 18 -9 23 21
3 18 3 -9 2 -35 -2 -43 1 -52 22 -6 13 -11 47 -11 76 1 51 1 52 41 71 22 10
45 29 51 42 14 30 24 30 42 2z"/>
<path d="M1960 3187 c0 -2 15 -16 33 -33 l32 -29 -29 33 c-28 30 -36 37 -36
29z"/>
<path d="M1652 3030 c0 -14 2 -19 5 -12 2 6 2 18 0 25 -3 6 -5 1 -5 -13z"/>
<path d="M1692 3020 c0 -14 2 -19 5 -12 2 6 2 18 0 25 -3 6 -5 1 -5 -13z"/>
<path d="M1570 2860 c-21 -7 -21 -8 -5 -9 11 0 27 4 35 9 18 11 5 11 -30 0z"/>
<path d="M1508 2843 c6 -2 18 -2 25 0 6 3 1 5 -13 5 -14 0 -19 -2 -12 -5z"/>
<path d="M1450 2250 c28 -25 203 -130 217 -130 4 0 -34 25 -85 55 -51 29 -107
64 -125 75 l-32 22 25 -22z"/>
<path d="M1308 2238 c15 -19 156 -118 169 -118 4 0 -21 20 -57 45 -36 24 -78
54 -95 67 -16 12 -24 15 -17 6z"/>
<path d="M2020 2955 c0 -5 10 -21 21 -35 13 -17 17 -18 10 -5 -17 33 -31 51
-31 40z"/>
<path d="M1771 2784 c0 -11 3 -14 6 -6 3 7 2 16 -1 19 -3 4 -6 -2 -5 -13z"/>
<path d="M1780 2753 c0 -5 10 -18 23 -29 l22 -19 -20 25 c-11 14 -21 27 -22
29 -2 2 -3 0 -3 -6z"/>
<path d="M2110 2766 c0 -2 8 -10 18 -17 15 -13 16 -12 3 4 -13 16 -21 21 -21
13z"/>
<path d="M1820 2613 c0 -5 12 -20 28 -34 l27 -24 -25 30 c-14 17 -26 32 -27
34 -2 2 -3 0 -3 -6z"/>
<path d="M2461 1734 c0 -11 3 -14 6 -6 3 7 2 16 -1 19 -3 4 -6 -2 -5 -13z"/>
<path d="M2642 1635 c0 -16 2 -22 5 -12 2 9 2 23 0 30 -3 6 -5 -1 -5 -18z"/>
<path d="M2713 1605 c0 -22 2 -30 4 -17 2 12 2 30 0 40 -3 9 -5 -1 -4 -23z"/>
<path d="M2651 1587 c-1 -29 20 -107 32 -114 5 -3 7 -1 4 5 -4 5 -13 36 -21
69 -8 32 -15 50 -15 40z"/>
<path d="M2703 1505 c0 -22 2 -30 4 -17 2 12 2 30 0 40 -3 9 -5 -1 -4 -23z"/>
<path d="M2416 1421 c12 -11 84 -34 89 -29 3 2 -18 12 -47 21 -28 9 -47 12
-42 8z"/>
<path d="M2535 1380 c11 -5 27 -9 35 -9 9 0 8 4 -5 9 -11 5 -27 9 -35 9 -9 0
-8 -4 5 -9z"/>
<path d="M2425 1345 c17 -8 44 -14 60 -13 29 0 29 0 -5 7 -19 4 -46 11 -60 14
-20 6 -19 4 5 -8z"/>
<path d="M2810 1337 c0 -2 15 -14 33 -27 l32 -23 -24 26 c-21 23 -41 35 -41
24z"/>
<path d="M2791 1291 c14 -21 59 -60 59 -50 0 2 -17 20 -37 39 -27 26 -33 29
-22 11z"/>
<path d="M2140 2561 c0 -6 4 -13 10 -16 6 -3 7 1 4 9 -7 18 -14 21 -14 7z"/>
<path d="M2938 1423 c6 -2 18 -2 25 0 6 3 1 5 -13 5 -14 0 -19 -2 -12 -5z"/>
<path d="M2928 1348 c5 -5 16 -8 23 -6 8 3 3 7 -10 11 -17 4 -21 3 -13 -5z"/>
<path d="M2971 1337 c9 -8 89 -36 89 -32 0 6 -69 35 -83 35 -6 0 -8 -2 -6 -3z"/>
<path d="M2921 1316 c10 -9 89 -46 89 -41 0 5 -75 45 -86 45 -4 0 -5 -2 -3 -4z"/>
<path d="M3134 1113 c-21 -26 -33 -44 -27 -40 14 9 77 87 70 87 -3 0 -22 -21
-43 -47z"/>
<path d="M3370 770 c-8 -5 -10 -10 -5 -10 6 0 17 5 25 10 8 5 11 10 5 10 -5 0
-17 -5 -25 -10z"/>
<path d="M3328 753 c7 -3 16 -2 19 1 4 3 -2 6 -13 5 -11 0 -14 -3 -6 -6z"/>
<path d="M2995 740 c-13 -5 -14 -9 -5 -9 8 0 24 4 35 9 13 5 14 9 5 9 -8 0
-24 -4 -35 -9z"/>
<path d="M3055 550 c-14 -7 -8 -8 20 -3 22 3 42 7 44 9 9 8 -45 2 -64 -6z"/>
<path d="M791 1194 c0 -11 3 -14 6 -6 3 7 2 16 -1 19 -3 4 -6 -2 -5 -13z"/>
<path d="M962 1175 c0 -16 2 -22 5 -12 2 9 2 23 0 30 -3 6 -5 -1 -5 -18z"/>
<path d="M1139 1164 c-5 -15 -12 -31 -16 -37 -3 -6 -1 -7 4 -4 11 7 36 67 27
67 -2 0 -9 -12 -15 -26z"/>
<path d="M2033 1095 c0 -33 2 -45 4 -27 2 18 2 45 0 60 -2 15 -4 0 -4 -33z"/>
<path d="M1956 1104 c-4 -14 -5 -28 -3 -31 3 -2 8 8 11 23 4 14 5 28 3 31 -3
2 -8 -8 -11 -23z"/>
<path d="M622 1040 c0 -19 2 -27 5 -17 2 9 2 25 0 35 -3 9 -5 1 -5 -18z"/>
<path d="M842 1035 c0 -16 2 -22 5 -12 2 9 2 23 0 30 -3 6 -5 -1 -5 -18z"/>
<path d="M1931 1014 c-7 -25 -10 -48 -8 -51 3 -2 10 17 16 43 7 25 10 48 8 51
-3 2 -10 -17 -16 -43z"/>
<path d="M1292 948 c-14 -18 -43 -78 -38 -78 2 0 16 20 29 45 25 45 29 57 9
33z"/>
<path d="M992 920 c0 -14 2 -19 5 -12 2 6 2 18 0 25 -3 6 -5 1 -5 -13z"/>
<path d="M552 895 c0 -16 2 -22 5 -12 2 9 2 23 0 30 -3 6 -5 -1 -5 -18z"/>
<path d="M752 865 c0 -16 2 -22 5 -12 2 9 2 23 0 30 -3 6 -5 -1 -5 -18z"/>
<path d="M1445 831 c-38 -32 -81 -71 -95 -87 -14 -15 7 0 45 33 39 34 84 73
100 87 17 14 28 25 25 26 -3 0 -36 -27 -75 -59z"/>
<path d="M1225 829 c-9 -17 -15 -33 -13 -35 3 -2 12 12 21 31 21 43 13 47 -8
4z"/>
<path d="M582 720 c0 -19 2 -27 5 -17 2 9 2 25 0 35 -3 9 -5 1 -5 -18z"/>
<path d="M1020 745 c0 -5 5 -17 10 -25 5 -8 10 -10 10 -5 0 6 -5 17 -10 25 -5
8 -10 11 -10 5z"/>
<path d="M1417 685 c-24 -50 -20 -58 4 -12 11 22 19 41 17 43 -3 2 -12 -12
-21 -31z"/>
<path d="M1910 679 c-12 -23 -20 -43 -18 -45 3 -2 14 17 26 41 27 56 20 60 -8
4z"/>
<path d="M1110 615 c14 -8 30 -14 35 -14 6 0 -1 6 -15 14 -14 8 -29 14 -35 14
-5 0 1 -6 15 -14z"/>
<path d="M1380 610 c-6 -11 -8 -20 -6 -20 3 0 10 9 16 20 6 11 8 20 6 20 -3 0
-10 -9 -16 -20z"/>
<path d="M1191 514 c0 -11 3 -14 6 -6 3 7 2 16 -1 19 -3 4 -6 -2 -5 -13z"/>
<path d="M1382 500 c0 -14 2 -19 5 -12 2 6 2 18 0 25 -3 6 -5 1 -5 -13z"/>
<path d="M1182 465 c0 -16 2 -22 5 -12 2 9 2 23 0 30 -3 6 -5 -1 -5 -18z"/>
</g>
</svg>
